<svg width="72" height="83" viewBox="0 0 72 83" fill="none" xmlns="http://www.w3.org/2000/svg">
<path d="M35.9947 29.7363C20.9479 29.7363 10.8443 40.2716 8.75 53.0657H63.2394C60.4314 39.653 51.0415 29.7363 35.9947 29.7363Z" fill="#FBC225"/>
<path d="M52.2365 26.8678C52.3791 26.1064 50.9668 25.0251 50.9668 25.0251C51.8978 25.0562 54.7634 26.7608 54.7634 26.7608C50.9474 20.4232 41.4811 21.4811 37.2249 22.8023C38.0686 22.9603 38.2562 23.8696 38.2562 23.8696C38.3923 24.4108 44.1581 25.8337 44.2653 26.2945C44.2657 26.3009 44.2661 26.3072 44.2664 26.3136C44.2672 26.3075 44.2668 26.3011 44.2653 26.2945C44.1876 24.9952 43.7242 24.9427 42.7744 24.5152C44.3656 24.498 46.1213 25.6508 47.0923 26.5635C47.5058 26.2612 46.2334 25.132 45.1074 24.4435C46.9518 24.789 49.1087 26.1817 49.3541 26.7292C49.2232 25.5225 48.6889 25.4224 47.9815 24.817C49.2312 25.0511 50.7051 25.3272 52.2365 26.8678Z" fill="white"/>
<path d="M53.6937 15.4757C53.2826 14.7045 51.2344 14.7699 51.2344 14.7699C52.1007 14.1281 55.9092 13.5655 55.9092 13.5655C47.9505 10.7421 40.117 18.4751 37.1951 22.6945C38.0723 22.227 38.8877 22.8907 38.8877 22.8907C39.3953 23.2681 45.6339 20.3738 46.0582 20.7014C46.063 20.7067 46.0679 20.712 46.0727 20.7174C46.0691 20.7114 46.0642 20.7061 46.0582 20.7014C45.0655 19.6161 44.608 19.9031 43.4433 20.2103C44.874 19.0515 47.2844 18.8021 48.8127 18.9058C48.9731 18.3431 47.0178 18.2659 45.508 18.4705C47.4259 17.4482 50.3703 17.1212 50.9814 17.4257C50.0063 16.4599 49.4506 16.7561 48.3795 16.7328C49.6789 16.0402 51.2114 15.2233 53.6937 15.4757Z" fill="white"/>
<path d="M35.499 7.2637C36.3048 7.19704 37.2802 8.82291 37.2802 8.82291C37.3454 7.82754 35.8747 4.58323 35.8747 4.58323C42.0586 9.35919 39.9685 19.327 38.1505 23.7139C38.0747 22.7973 37.1498 22.4955 37.1498 22.4955C36.6019 22.2898 35.7274 15.987 35.26 15.8212C35.2534 15.82 35.2469 15.8189 35.2403 15.8178C35.2468 15.8177 35.2533 15.8188 35.26 15.8212C36.6015 16.0495 36.6076 16.5492 36.9522 17.6091C37.1367 15.9155 36.123 13.9157 35.2766 12.7789C35.6339 12.3722 36.6736 13.8545 37.2709 15.1313C37.1052 13.1273 35.8843 10.6732 35.3412 10.3504C36.581 10.625 36.629 11.2056 37.1838 12.0271C37.0715 10.6693 36.9391 9.06799 35.499 7.2637Z" fill="white"/>
<path d="M26.7159 16.6538C27.0864 16.1185 28.596 16.343 28.596 16.343C28.0103 15.7937 25.2411 15.05 25.2411 15.05C31.3719 13.6456 36.5023 20.0402 38.3012 23.4131C37.6924 22.9917 37.0321 23.4126 37.0321 23.4126C36.6241 23.6483 32.2575 20.9705 31.9154 21.1764C31.9114 21.1799 31.9074 21.1834 31.9033 21.187C31.9065 21.1828 31.9106 21.1793 31.9154 21.1764C32.7432 20.4588 33.057 20.7105 33.8923 21.0379C32.9334 20.0576 31.1716 19.6658 30.032 19.6111C29.9617 19.181 31.4149 19.2921 32.5143 19.5732C31.1834 18.652 29.0332 18.1569 28.5549 18.3296C29.3593 17.6989 29.7449 17.9658 30.5394 18.0407C29.6376 17.4166 28.574 16.6804 26.7159 16.6538Z" fill="white"/>
<path d="M45.5123 34.4595C45.9334 34.1392 45.62 32.0626 45.62 32.0626C46.2898 32.7844 47.4099 36.3112 47.4099 36.3112C49.5477 27.8635 40.7178 24.7448 37.0475 22.2674C37.6005 22.9946 36.9259 23.1538 36.9259 23.1538C36.8011 23.5601 40.0141 27.7722 39.9061 28.1042C39.9034 28.1087 39.9006 28.1131 39.8979 28.1176C39.9016 28.1142 39.9043 28.1098 39.9061 28.1042C40.3876 27.316 40.0697 26.9357 39.5512 25.9775C40.7253 27.1717 41.5337 29.1483 41.8664 30.3962C42.2952 30.539 42.1043 28.5413 41.5648 27.3022C42.7738 28.892 43.5038 31.7071 43.4561 32.2006C43.8618 31.4231 43.7844 30.5624 43.5172 29.6868C44.3364 30.764 45.0296 32.4345 45.5123 34.4595Z" fill="white"/>
<path d="M22.5056 77.8071C21.5351 47.2823 30.3938 31.5582 38.3777 21.9864L39.5144 22.9968C33.9843 27.0835 22.1387 48.9623 25.98 77.9087L22.5056 77.8071Z" fill="white"/>
<path d="M20.1054 30.9368C19.9757 30.6455 20.4122 30.1032 20.4122 30.1032C20.0575 30.1897 19.1237 31.0953 19.1237 31.0953C19.9676 28.2723 23.7096 27.9397 25.4751 28.1262C25.1664 28.2562 25.1837 28.6325 25.1837 28.6325C25.1845 28.8617 23.049 29.9122 23.114 30.0823C23.013 29.5525 23.1861 29.4954 23.5107 29.2487C22.8974 29.3685 22.336 29.9664 22.0525 30.4065C21.8638 30.3192 22.2419 29.7691 22.607 29.4058C21.9321 29.6899 21.24 30.4151 21.1995 30.6523C21.1312 30.1622 21.3268 30.0799 21.5391 29.783C21.0818 29.9755 20.5425 30.2025 20.1054 30.9368Z" fill="white"/>
<path d="M18.43 26.5214C18.5122 26.1821 19.3058 26.0451 19.3058 26.0451C18.9098 25.8589 17.3908 25.9383 17.3908 25.9383C20.1721 24.1827 23.9425 26.6334 25.48 28.0782C25.097 27.9621 24.8488 28.2908 24.8488 28.2908C24.6908 28.4813 22.0088 27.8271 21.8779 27.9911C21.8766 27.9936 21.8752 27.9961 21.8739 27.9986C21.8747 27.996 21.8761 27.9935 21.8779 27.9911C22.1528 27.4807 22.3568 27.5584 22.8346 27.5878C22.1709 27.241 21.22 27.3337 20.6429 27.4965C20.5259 27.2856 21.2698 27.0993 21.8702 27.0605C21.0327 26.8067 19.8689 26.911 19.664 27.0807C19.9438 26.6192 20.1865 26.6927 20.5959 26.5982C20.0284 26.4263 19.3592 26.2235 18.43 26.5214Z" fill="white"/>
<path d="M24.616 21.812C24.2998 21.8496 24.0847 22.5736 24.0847 22.5736C23.9618 22.1831 24.2083 20.7764 24.2083 20.7764C22.301 23.167 24.0836 26.963 25.2133 28.5623C25.1524 28.1919 25.4782 27.9983 25.4782 27.9983C25.6713 27.8712 25.3772 25.2241 25.556 25.1919C25.0551 25.3903 25.1025 25.5892 25.074 26.0401C24.8367 25.3816 25.0298 24.506 25.2434 23.9867C25.0661 23.8535 24.8122 24.5254 24.7081 25.0805C24.5749 24.2707 24.803 23.198 24.98 23.0265C24.5305 23.2343 24.5691 23.4689 24.4366 23.8396C24.3463 23.2909 24.2399 22.6438 24.616 21.812Z" fill="white"/>
<path d="M28.9132 24.845C28.7183 24.6617 28.1602 24.8711 28.1602 24.8711C28.3313 24.6061 29.3225 24.0901 29.3225 24.0901C26.8283 24.0196 25.4849 26.9699 25.1249 28.4538C25.3175 28.2378 25.6127 28.3526 25.6127 28.3526C25.7952 28.4147 27.2481 26.9615 27.365 27.0598C26.9717 26.8359 26.8762 26.9612 26.586 27.1588C26.8582 26.6928 27.4968 26.3969 27.9294 26.2844C27.9141 26.1079 27.3666 26.2677 26.9717 26.4669C27.3927 25.9948 28.1704 25.6269 28.3712 25.6575C28 25.4708 27.8781 25.6076 27.5801 25.7006C27.8654 25.3807 28.2018 25.0034 28.9132 24.845Z" fill="white"/>
<path d="M23.4369 33.417C23.2436 33.3232 23.16 32.4728 23.16 32.4728C22.9735 32.813 22.8896 34.3041 22.8896 34.3041C21.238 31.1161 24.325 29.1737 25.4922 27.8969C25.3511 28.23 25.626 28.2396 25.626 28.2396C25.7154 28.3937 24.8653 30.386 24.9715 30.4492C24.7036 30.1716 24.7888 29.9955 24.8945 29.5709C24.5606 30.1391 24.4442 30.9891 24.4389 31.5117C24.2881 31.6026 24.1652 30.7932 24.2508 30.2577C23.9424 30.9859 23.9384 32.1631 24.0052 32.3555C23.7729 32.0787 23.7181 31.7304 23.7347 31.361C23.5257 31.8544 23.4235 32.5736 23.4369 33.417Z" fill="white"/>
<path d="M34.7486 50.0325C33.7811 38.7172 28.3767 31.2887 25.5579 28.0023L25.4779 28.4767C25.4779 28.4767 33.8447 39.8029 33.186 50.0325L34.7486 50.0325Z" fill="white"/>
<path d="M29.3648 60.912C29.0504 60.912 28.7848 60.7828 28.5682 60.5242C28.3585 60.2657 28.2537 59.9197 28.2537 59.4865C28.2537 59.2489 28.2817 58.9938 28.3376 58.7213C28.3935 58.4488 28.4494 58.1902 28.5053 57.9456C28.5542 57.7639 28.5926 57.5962 28.6206 57.4425C28.6555 57.2818 28.673 57.1525 28.673 57.0547C28.673 56.9289 28.6451 56.838 28.5892 56.7821C28.5402 56.7262 28.4808 56.6983 28.411 56.6983C28.3411 56.6983 28.2712 56.7227 28.2013 56.7716C28.1314 56.8136 28.0755 56.88 28.0336 56.9708L27.9497 56.9394C27.9497 56.6528 28.0196 56.4083 28.1594 56.2056C28.2991 56.003 28.4773 55.8492 28.694 55.7444C28.9106 55.6396 29.1307 55.5872 29.3543 55.5872C29.536 55.5872 29.7107 55.6256 29.8784 55.7025C30.0462 55.7724 30.1824 55.8842 30.2872 56.0379C30.399 56.1916 30.455 56.3838 30.455 56.6144C30.455 56.7542 30.434 56.9219 30.3921 57.1175C30.3571 57.3132 30.3152 57.5159 30.2663 57.7255C30.2174 57.9421 30.1684 58.1623 30.1195 58.3859C30.0776 58.6025 30.0566 58.7947 30.0566 58.9624C30.0566 59.1161 30.0811 59.2419 30.13 59.3397C30.1789 59.4376 30.2523 59.4865 30.3501 59.4865C30.5318 59.4865 30.7345 59.3188 30.9581 58.9834C31.1887 58.6479 31.3739 58.1972 31.5136 57.6312C31.5416 57.5194 31.566 57.4006 31.587 57.2748C31.608 57.149 31.6185 57.0197 31.6185 56.8869C31.6185 56.7821 31.6115 56.6773 31.5975 56.5725C31.5835 56.4607 31.5626 56.3489 31.5346 56.2371V56.1637C31.6464 55.975 31.7897 55.8318 31.9644 55.7339C32.1461 55.6361 32.3277 55.5872 32.5094 55.5872C32.754 55.5872 32.9741 55.671 33.1698 55.8387C33.3655 56.0065 33.4633 56.251 33.4633 56.5725C33.4633 56.7612 33.4284 56.9813 33.3585 57.2329C33.2886 57.4774 33.2117 57.7325 33.1279 57.998C33.044 58.2566 32.9671 58.5117 32.8973 58.7632C32.8274 59.0148 32.7924 59.2384 32.7924 59.4341C32.7924 59.7206 32.8938 59.8638 33.0964 59.8638C33.1523 59.8638 33.2187 59.8499 33.2956 59.8219C33.3794 59.787 33.4563 59.7206 33.5262 59.6228L33.5996 59.6437C33.5996 59.8953 33.5297 60.1189 33.3899 60.3146C33.2571 60.5032 33.0859 60.65 32.8763 60.7548C32.6667 60.8596 32.45 60.912 32.2264 60.912C31.9399 60.912 31.6814 60.8072 31.4507 60.5976C31.2271 60.3879 31.1153 60.0455 31.1153 59.5703V59.5494C30.8288 60.0385 30.5318 60.3879 30.2243 60.5976C29.9169 60.8072 29.6304 60.912 29.3648 60.912ZM35.1914 60.912C34.891 60.912 34.6499 60.8107 34.4682 60.6081C34.2865 60.4054 34.1956 60.1294 34.1956 59.78C34.1956 59.5913 34.2201 59.3467 34.269 59.0462C34.3179 58.7388 34.3773 58.4033 34.4472 58.04C34.5241 57.6696 34.5975 57.2957 34.6673 56.9184C34.7372 56.534 34.7966 56.1637 34.8455 55.8073C34.8944 55.4509 34.9189 55.1364 34.9189 54.8639C34.9189 54.5215 34.8735 54.2734 34.7826 54.1197V54.0568C34.9364 53.8821 35.1041 53.7528 35.2858 53.669C35.4675 53.5851 35.6457 53.5432 35.8204 53.5432C36.0859 53.5432 36.313 53.6375 36.5017 53.8262C36.6904 54.0149 36.7847 54.2979 36.7847 54.6752C36.7847 54.8779 36.7568 55.126 36.7009 55.4195C36.6449 55.713 36.5786 56.0204 36.5017 56.3419C36.4248 56.6633 36.348 56.9638 36.2711 57.2433C36.4039 56.9848 36.5786 56.7297 36.7952 56.4781C37.0188 56.2196 37.2704 56.0065 37.5499 55.8387C37.8364 55.671 38.1334 55.5872 38.4409 55.5872C38.7903 55.5872 39.0244 55.6955 39.1432 55.9121C39.2689 56.1287 39.3318 56.3978 39.3318 56.7192C39.3318 57.0127 39.3004 57.3272 39.2375 57.6626C39.1746 57.9911 39.1117 58.309 39.0488 58.6165C38.9859 58.917 38.9545 59.1685 38.9545 59.3712C38.9545 59.6647 39.0418 59.8114 39.2165 59.8114C39.2934 59.8114 39.3598 59.7905 39.4157 59.7485C39.4786 59.6996 39.524 59.6472 39.552 59.5913L39.6253 59.6437C39.6253 59.9163 39.559 60.1469 39.4262 60.3355C39.2934 60.5242 39.1222 60.6675 38.9126 60.7653C38.7099 60.8631 38.5003 60.912 38.2836 60.912C37.9971 60.912 37.7386 60.8177 37.508 60.629C37.2774 60.4334 37.1621 60.1189 37.1621 59.6856C37.1621 59.4411 37.1935 59.1755 37.2564 58.889C37.3263 58.6025 37.3927 58.3265 37.4556 58.0609C37.5184 57.7884 37.5499 57.5613 37.5499 57.3796C37.5499 57.142 37.466 57.0232 37.2983 57.0232C37.1446 57.0232 36.9769 57.1001 36.7952 57.2538C36.6135 57.4076 36.4528 57.5997 36.313 57.8303C36.1802 58.0609 36.0929 58.288 36.051 58.5117C36.037 58.5676 36.03 58.634 36.03 58.7108C36.03 58.8855 36.0545 59.0532 36.1034 59.214C36.1593 59.3747 36.1872 59.5634 36.1872 59.78C36.1872 60.1014 36.1034 60.3705 35.9357 60.5871C35.768 60.8037 35.5199 60.912 35.1914 60.912ZM43.9981 60.9225C43.7536 60.9225 43.5404 60.8422 43.3587 60.6814C43.1771 60.5207 43.0862 60.2587 43.0862 59.8953C43.0862 59.8603 43.0862 59.8254 43.0862 59.7905C43.0862 59.7555 43.0897 59.7206 43.0967 59.6856C42.8871 60.1049 42.6495 60.4159 42.3839 60.6185C42.1254 60.8142 41.8633 60.912 41.5978 60.912C41.3532 60.912 41.1226 60.8282 40.9059 60.6605C40.6893 60.4858 40.5146 60.2307 40.3818 59.8953C40.2491 59.5599 40.1827 59.1546 40.1827 58.6794C40.1827 58.1902 40.2491 57.7535 40.3818 57.3691C40.5216 56.9848 40.7033 56.6598 40.9269 56.3943C41.1505 56.1287 41.3951 55.9296 41.6607 55.7968C41.9262 55.6571 42.1848 55.5872 42.4363 55.5872C42.7158 55.5872 42.9674 55.6745 43.191 55.8492C43.4146 56.0169 43.5684 56.286 43.6522 56.6563C43.6732 56.5375 43.6872 56.4292 43.6942 56.3314C43.7081 56.2336 43.7151 56.1672 43.7151 56.1322C43.7221 55.9436 43.8165 55.8038 43.9981 55.713C44.1868 55.6221 44.393 55.5767 44.6166 55.5767C44.8123 55.5767 44.9974 55.6151 45.1721 55.692C45.3468 55.7689 45.4656 55.8981 45.5285 56.0798L45.5495 56.1427C45.4656 56.3314 45.3818 56.5585 45.2979 56.8241C45.2141 57.0896 45.1372 57.3691 45.0673 57.6626C44.9974 57.9491 44.9415 58.2321 44.8996 58.5117C44.8577 58.7842 44.8367 59.0253 44.8367 59.2349C44.8367 59.4655 44.8612 59.6262 44.9101 59.7171C44.959 59.8009 45.0184 59.8429 45.0883 59.8429C45.2071 59.8429 45.3154 59.759 45.4132 59.5913L45.4971 59.6332C45.4971 59.8708 45.4202 60.0875 45.2665 60.2831C45.1127 60.4788 44.9206 60.636 44.69 60.7548C44.4594 60.8666 44.2288 60.9225 43.9981 60.9225ZM42.2896 59.5913C42.4713 59.5913 42.6704 59.4306 42.8871 59.1091C43.1107 58.7807 43.3028 58.3125 43.4636 57.7045C43.4775 57.6417 43.4915 57.5823 43.5055 57.5263C43.5195 57.4635 43.53 57.4041 43.5369 57.3482C43.4251 57.0896 43.3063 56.9079 43.1805 56.8031C43.0618 56.6913 42.943 56.6354 42.8242 56.6354C42.6495 56.6354 42.4852 56.7297 42.3315 56.9184C42.1848 57.1001 42.0625 57.3307 41.9646 57.6102C41.8738 57.8897 41.8284 58.1692 41.8284 58.4488C41.8284 58.8331 41.8703 59.1196 41.9542 59.3083C42.045 59.497 42.1568 59.5913 42.2896 59.5913ZM47.3257 60.9016C47.0671 60.9016 46.833 60.8002 46.6234 60.5976C46.4138 60.3879 46.3089 60.0979 46.3089 59.7276C46.3089 59.5459 46.3334 59.3397 46.3823 59.1091C46.4312 58.8785 46.4836 58.6444 46.5395 58.4068C46.6024 58.1692 46.6583 57.9456 46.7073 57.736C46.7562 57.5263 46.7806 57.3551 46.7806 57.2224C46.7806 57.0826 46.7527 56.9743 46.6968 56.8974C46.6409 56.8136 46.5675 56.7716 46.4767 56.7716C46.3579 56.7716 46.2286 56.8415 46.0888 56.9813L46.0259 56.9394C46.0189 56.8275 46.0434 56.6948 46.0993 56.541C46.1552 56.3873 46.2391 56.2406 46.3509 56.1008C46.4697 55.954 46.6199 55.8318 46.8016 55.7339C46.9833 55.6361 47.1999 55.5872 47.4515 55.5872C47.8218 55.5872 48.0944 55.6955 48.2691 55.9121C48.4508 56.1218 48.5416 56.3803 48.5416 56.6878C48.5416 56.7996 48.5311 56.9079 48.5102 57.0127C48.6569 56.7961 48.8386 56.5795 49.0552 56.3628C49.2719 56.1392 49.5095 55.954 49.768 55.8073C50.0336 55.6605 50.3061 55.5872 50.5856 55.5872C50.914 55.5872 51.1377 55.692 51.2565 55.9016C51.3753 56.1113 51.4347 56.3733 51.4347 56.6878C51.4347 56.9813 51.4032 57.2957 51.3403 57.6312C51.2774 57.9666 51.2145 58.2915 51.1516 58.606C51.0887 58.9135 51.0573 59.172 51.0573 59.3817C51.0573 59.6612 51.1377 59.8009 51.2984 59.8009C51.3822 59.8009 51.4556 59.7765 51.5185 59.7276C51.5814 59.6717 51.6233 59.6193 51.6443 59.5703L51.7177 59.6018C51.7177 59.8603 51.6443 60.0875 51.4975 60.2831C51.3578 60.4788 51.1796 60.6325 50.963 60.7443C50.7463 60.8492 50.5262 60.9016 50.3026 60.9016C50.0301 60.9016 49.789 60.8072 49.5793 60.6185C49.3697 60.4299 49.2649 60.1224 49.2649 59.6961C49.2649 59.4446 49.2963 59.172 49.3592 58.8785C49.4291 58.585 49.4955 58.302 49.5584 58.0295C49.6213 57.757 49.6527 57.5333 49.6527 57.3586C49.6527 57.2538 49.6317 57.1735 49.5898 57.1175C49.5549 57.0547 49.4885 57.0232 49.3907 57.0232C49.2299 57.0232 49.0517 57.0966 48.8561 57.2433C48.6674 57.3901 48.5032 57.5857 48.3634 57.8303C48.2306 58.0749 48.1643 58.3439 48.1643 58.6374C48.1643 58.8261 48.1852 59.0078 48.2272 59.1825C48.2761 59.3572 48.3005 59.5459 48.3005 59.7485C48.3005 60.1259 48.2027 60.4124 48.007 60.6081C47.8114 60.8037 47.5843 60.9016 47.3257 60.9016ZM54.4948 60.9435C53.9846 60.9435 53.5619 60.8422 53.2264 60.6395C52.891 60.4299 52.6394 60.1573 52.4717 59.8219C52.304 59.4795 52.2202 59.1126 52.2202 58.7213C52.2202 58.3509 52.29 57.9806 52.4298 57.6102C52.5765 57.2329 52.7862 56.8904 53.0587 56.583C53.3382 56.2755 53.6737 56.0274 54.065 55.8387C54.4633 55.6501 54.9105 55.5557 55.4067 55.5557C56.0216 55.5557 56.4689 55.6955 56.7484 55.975C57.0349 56.2475 57.1782 56.5795 57.1782 56.9708C57.1782 57.3062 57.0873 57.6172 56.9056 57.9037C56.7309 58.1832 56.4968 58.4103 56.2033 58.585C55.9098 58.7527 55.5884 58.8366 55.239 58.8366C55.0573 58.8366 54.8721 58.8087 54.6834 58.7527C54.4948 58.6968 54.3096 58.6095 54.1279 58.4907C54.1628 58.924 54.2886 59.2384 54.5052 59.4341C54.7219 59.6297 54.9804 59.7276 55.2809 59.7276C55.4905 59.7276 55.7002 59.6891 55.9098 59.6123C56.1195 59.5284 56.3116 59.4236 56.4863 59.2978C56.668 59.165 56.8078 59.0253 56.9056 58.8785L56.979 58.9309C56.979 59.2943 56.9021 59.6053 56.7484 59.8638C56.6016 60.1154 56.406 60.3216 56.1614 60.4823C55.9168 60.643 55.6478 60.7618 55.3543 60.8387C55.0678 60.9086 54.7813 60.9435 54.4948 60.9435ZM54.7358 58.1133C54.9595 58.1133 55.1411 58.0505 55.2809 57.9247C55.4207 57.7919 55.5255 57.6382 55.5954 57.4635C55.6653 57.2888 55.7002 57.135 55.7002 57.0022C55.7002 56.8415 55.6548 56.7088 55.5639 56.6039C55.4731 56.4921 55.3473 56.4362 55.1866 56.4362C55.0608 56.4362 54.921 56.4816 54.7673 56.5725C54.6205 56.6633 54.4878 56.8206 54.369 57.0442C54.2502 57.2608 54.1733 57.5648 54.1384 57.9561C54.362 58.0609 54.5611 58.1133 54.7358 58.1133Z" fill="white"/>
<path d="M31.7862 73.6257C31.5416 73.6257 31.3285 73.5453 31.1468 73.3846C30.9651 73.2238 30.8742 72.9618 30.8742 72.5984C30.8742 72.5635 30.8742 72.5285 30.8742 72.4936C30.8742 72.4587 30.8777 72.4237 30.8847 72.3888C30.6751 72.8081 30.4375 73.119 30.1719 73.3217C29.9134 73.5173 29.6513 73.6152 29.3858 73.6152C29.1412 73.6152 28.9106 73.5313 28.694 73.3636C28.4773 73.1889 28.3026 72.9338 28.1699 72.5984C28.0371 72.263 27.9707 71.8577 27.9707 71.3825C27.9707 70.8933 28.0371 70.4566 28.1699 70.0722C28.3096 69.6879 28.4913 69.363 28.7149 69.0974C28.9386 68.8319 29.1831 68.6327 29.4487 68.4999C29.7142 68.3602 29.9728 68.2903 30.2243 68.2903C30.5039 68.2903 30.7554 68.3776 30.9791 68.5523C31.2027 68.7201 31.3564 68.9891 31.4403 69.3595C31.4612 69.2407 31.4752 69.1324 31.4822 69.0345C31.4962 68.9367 31.5032 68.8703 31.5032 68.8354C31.5101 68.6467 31.6045 68.5069 31.7862 68.4161C31.9748 68.3252 32.181 68.2798 32.4046 68.2798C32.6003 68.2798 32.7855 68.3183 32.9602 68.3951C33.1349 68.472 33.2537 68.6013 33.3165 68.783L33.3375 68.8458C33.2537 69.0345 33.1698 69.2616 33.0859 69.5272C33.0021 69.7927 32.9252 70.0722 32.8553 70.3657C32.7855 70.6522 32.7296 70.9353 32.6876 71.2148C32.6457 71.4873 32.6247 71.7284 32.6247 71.938C32.6247 72.1686 32.6492 72.3294 32.6981 72.4202C32.747 72.5041 32.8064 72.546 32.8763 72.546C32.9951 72.546 33.1034 72.4621 33.2012 72.2944L33.2851 72.3364C33.2851 72.574 33.2082 72.7906 33.0545 72.9862C32.9008 73.1819 32.7086 73.3391 32.478 73.4579C32.2474 73.5697 32.0168 73.6257 31.7862 73.6257ZM30.0776 72.2944C30.2593 72.2944 30.4584 72.1337 30.6751 71.8123C30.8987 71.4838 31.0909 71.0156 31.2516 70.4077C31.2656 70.3448 31.2795 70.2854 31.2935 70.2295C31.3075 70.1666 31.318 70.1072 31.325 70.0513C31.2132 69.7927 31.0944 69.611 30.9686 69.5062C30.8498 69.3944 30.731 69.3385 30.6122 69.3385C30.4375 69.3385 30.2733 69.4328 30.1195 69.6215C29.9728 69.8032 29.8505 70.0338 29.7527 70.3133C29.6618 70.5929 29.6164 70.8724 29.6164 71.1519C29.6164 71.5362 29.6583 71.8227 29.7422 72.0114C29.833 72.2001 29.9448 72.2944 30.0776 72.2944ZM34.8446 75.7011C34.642 75.7011 34.4498 75.6627 34.2681 75.5858C34.0864 75.5159 33.9606 75.4076 33.8908 75.2608C34.0585 74.5481 34.1947 73.9157 34.2996 73.3636C34.4114 72.8115 34.4987 72.3189 34.5616 71.8856C34.6245 71.4524 34.6699 71.0576 34.6979 70.7012C34.7258 70.3378 34.7433 69.9884 34.7503 69.653C34.5127 69.6669 34.2856 69.6914 34.069 69.7263C33.8523 69.7543 33.6637 69.7962 33.5029 69.8521L33.482 69.7787C33.6846 69.5761 33.8943 69.4084 34.1109 69.2756C34.3275 69.1358 34.5441 69.024 34.7608 68.9402V68.1435C34.7608 67.6055 34.8691 67.1687 35.0857 66.8333C35.3023 66.4909 35.5784 66.2393 35.9138 66.0786C36.2562 65.9109 36.6091 65.827 36.9725 65.827C37.4547 65.827 37.8145 65.9423 38.0521 66.1729C38.2967 66.4035 38.419 66.6621 38.419 66.9486C38.419 67.1582 38.3526 67.3609 38.2198 67.5566C38.0941 67.7522 37.9019 67.9164 37.6433 68.0492C37.3848 68.175 37.0598 68.2379 36.6685 68.2379C36.7803 68.0352 36.8642 67.8326 36.9201 67.6299C36.983 67.4273 37.0144 67.2491 37.0144 67.0953C37.0144 66.9765 36.9969 66.8822 36.962 66.8123C36.9271 66.7355 36.8781 66.697 36.8153 66.697C36.6825 66.697 36.5532 66.8647 36.4274 67.2002C36.3086 67.5286 36.2492 67.9619 36.2492 68.4999V68.6991C36.4519 68.6921 36.644 68.6956 36.8257 68.7096C37.0144 68.7236 37.1891 68.7375 37.3498 68.7515C37.3638 68.8004 37.3743 68.8528 37.3813 68.9087C37.3883 68.9646 37.3918 69.0205 37.3918 69.0765C37.3918 69.1813 37.3778 69.2861 37.3498 69.3909C37.3219 69.4957 37.2835 69.604 37.2345 69.7159C37.1087 69.7019 36.9655 69.6879 36.8048 69.6739C36.644 69.66 36.4728 69.6495 36.2912 69.6425V69.8731C36.2912 70.2574 36.2737 70.7012 36.2387 71.2043C36.2108 71.7074 36.1549 72.3049 36.071 72.9967C35.9872 73.6885 35.8579 74.5131 35.6832 75.4705C35.4666 75.6242 35.187 75.7011 34.8446 75.7011ZM41.4288 73.6257C41.1842 73.6257 40.9711 73.5453 40.7894 73.3846C40.6077 73.2238 40.5169 72.9618 40.5169 72.5984C40.5169 72.5635 40.5169 72.5285 40.5169 72.4936C40.5169 72.4587 40.5204 72.4237 40.5274 72.3888C40.3177 72.8081 40.0801 73.119 39.8146 73.3217C39.556 73.5173 39.294 73.6152 39.0284 73.6152C38.7839 73.6152 38.5533 73.5313 38.3366 73.3636C38.12 73.1889 37.9453 72.9338 37.8125 72.5984C37.6797 72.263 37.6134 71.8577 37.6134 71.3825C37.6134 70.8933 37.6797 70.4566 37.8125 70.0722C37.9523 69.6879 38.134 69.363 38.3576 69.0974C38.5812 68.8319 38.8258 68.6327 39.0913 68.4999C39.3569 68.3602 39.6154 68.2903 39.867 68.2903C40.1465 68.2903 40.3981 68.3776 40.6217 68.5523C40.8453 68.7201 40.9991 68.9891 41.0829 69.3595C41.1039 69.2407 41.1179 69.1324 41.1248 69.0345C41.1388 68.9367 41.1458 68.8703 41.1458 68.8354C41.1528 68.6467 41.2471 68.5069 41.4288 68.4161C41.6175 68.3252 41.8236 68.2798 42.0473 68.2798C42.2429 68.2798 42.4281 68.3183 42.6028 68.3951C42.7775 68.472 42.8963 68.6013 42.9592 68.783L42.9802 68.8458C42.8963 69.0345 42.8124 69.2616 42.7286 69.5272C42.6447 69.7927 42.5679 70.0722 42.498 70.3657C42.4281 70.6522 42.3722 70.9353 42.3303 71.2148C42.2883 71.4873 42.2674 71.7284 42.2674 71.938C42.2674 72.1686 42.2918 72.3294 42.3408 72.4202C42.3897 72.5041 42.4491 72.546 42.519 72.546C42.6377 72.546 42.7461 72.4621 42.8439 72.2944L42.9278 72.3364C42.9278 72.574 42.8509 72.7906 42.6971 72.9862C42.5434 73.1819 42.3512 73.3391 42.1206 73.4579C41.89 73.5697 41.6594 73.6257 41.4288 73.6257ZM39.7203 72.2944C39.9019 72.2944 40.1011 72.1337 40.3177 71.8123C40.5413 71.4838 40.7335 71.0156 40.8942 70.4077C40.9082 70.3448 40.9222 70.2854 40.9362 70.2295C40.9501 70.1666 40.9606 70.1072 40.9676 70.0513C40.8558 69.7927 40.737 69.611 40.6112 69.5062C40.4924 69.3944 40.3736 69.3385 40.2548 69.3385C40.0801 69.3385 39.9159 69.4328 39.7622 69.6215C39.6154 69.8032 39.4931 70.0338 39.3953 70.3133C39.3045 70.5929 39.259 70.8724 39.259 71.1519C39.259 71.5362 39.301 71.8227 39.3848 72.0114C39.4757 72.2001 39.5875 72.2944 39.7203 72.2944ZM44.7564 73.6152C44.5048 73.6152 44.2812 73.5138 44.0855 73.3112C43.8899 73.1016 43.792 72.8081 43.792 72.4307C43.792 72.249 43.813 72.0429 43.8549 71.8123C43.8968 71.5817 43.9458 71.3476 44.0017 71.11C44.0576 70.8654 44.1065 70.6383 44.1484 70.4286C44.1903 70.212 44.2113 70.0338 44.2113 69.894C44.2113 69.7473 44.1834 69.632 44.1275 69.5481C44.0785 69.4573 44.0121 69.4119 43.9283 69.4119C43.7955 69.4119 43.6593 69.5027 43.5195 69.6844L43.4566 69.6425C43.4496 69.5307 43.4741 69.3979 43.53 69.2442C43.5859 69.0904 43.6732 68.9437 43.792 68.8039C43.9108 68.6572 44.0611 68.5349 44.2428 68.437C44.4314 68.3392 44.6516 68.2903 44.9031 68.2903C45.2735 68.2903 45.5425 68.3986 45.7102 68.6152C45.878 68.8249 45.9618 69.0799 45.9618 69.3804C45.9618 69.4293 45.9583 69.4818 45.9513 69.5377C45.9513 69.5866 45.9478 69.6355 45.9408 69.6844C46.1924 69.2302 46.4545 68.8843 46.727 68.6467C47.0065 68.4021 47.2651 68.2798 47.5027 68.2798C47.7263 68.2798 47.8905 68.3672 47.9953 68.5419C48.1001 68.7166 48.1526 68.9262 48.1526 69.1708C48.1526 69.3944 48.1071 69.6215 48.0163 69.8521C47.9324 70.0827 47.8032 70.2749 47.6285 70.4286C47.4607 70.5754 47.2546 70.6453 47.01 70.6383L46.9681 70.6173C46.9611 70.4356 46.9017 70.2924 46.7899 70.1875C46.6781 70.0827 46.5523 70.0303 46.4125 70.0303C46.2239 70.0303 46.0457 70.1247 45.878 70.3133C45.7172 70.502 45.6369 70.7745 45.6369 71.1309C45.6369 71.3476 45.6613 71.5817 45.7102 71.8332C45.7592 72.0848 45.7836 72.2979 45.7836 72.4726C45.7836 72.6823 45.7347 72.8744 45.6369 73.0491C45.539 73.2238 45.4132 73.3636 45.2595 73.4684C45.1058 73.5663 44.9381 73.6152 44.7564 73.6152Z" fill="white"/>
<path d="M12.8189 78.4627C8.35239 74.0855 4.73451 69.5744 3.12656 66.6264C2.27792 65.1078 1.87594 63.7679 1.87594 62.6512C1.87594 61.088 2.76924 60.2393 4.28786 60.2393C5.58315 60.2393 6.78911 61.0433 7.9504 62.3833C9.55835 61.2666 10.0943 59.2567 10.0943 57.2914C10.0943 55.6388 9.73701 54.1649 9.33502 53.2269H0V50.0557L72 50.0557V52.0181V53.2269L25.8915 53.3832L23.7736 65.1972L24.8111 77.8374H22.6006L23.149 66.0312C21.6304 66.3885 19.5187 66.9391 17.8661 66.9391C15.4988 66.9391 12.6849 66.4925 10.1837 65.1972C9.29036 65.8671 8.12906 66.4478 6.78911 66.8944C8.93304 69.7977 11.9703 72.7456 15.5435 76.0508L12.8189 78.4627ZM17.8214 63.7232C19.5187 63.7232 21.5857 63.2766 23.149 62.8299L24.845 53.2269H12.9976C13.4889 54.5222 13.7122 55.9515 13.7122 57.7381C13.7122 59.7033 13.2656 61.4006 12.3276 62.8299C14.1589 63.4999 15.8115 63.7232 17.8214 63.7232Z" fill="white"/>
</svg>
